<svg width="30" height="30" viewBox="0 0 30 30" fill="none" xmlns="http://www.w3.org/2000/svg">
<path d="M14.2285 24.7206C14.0392 24.7206 13.8545 24.6966 13.6747 24.6485C13.4948 24.6004 13.3196 24.5283 13.1492 24.4321L7.28384 21.2615C6.91525 21.0564 6.6264 20.7796 6.41728 20.4313C6.20813 20.0829 6.10356 19.6922 6.10356 19.2591V13.836L3.5964 12.4563C3.39128 12.3473 3.24264 12.2071 3.15049 12.0356C3.05835 11.8641 3.00826 11.6758 3.00024 11.4707C3.00024 11.2628 3.04832 11.0738 3.14446 10.9037C3.24063 10.7336 3.39128 10.5941 3.5964 10.4851L13.1487 5.28235C13.3183 5.1881 13.4926 5.11742 13.6716 5.07029C13.8506 5.02317 14.0362 4.9996 14.2285 4.9996C14.4208 4.9996 14.6064 5.02363 14.7853 5.0717C14.9642 5.11978 15.1384 5.19189 15.3078 5.28804L26.0842 11.151C26.2765 11.2551 26.4239 11.396 26.5265 11.5737C26.6291 11.7513 26.6803 11.9429 26.6803 12.1486V19.5235C26.6803 19.7891 26.5905 20.0118 26.4107 20.1915C26.2309 20.3712 26.0082 20.461 25.7425 20.461C25.4767 20.461 25.2541 20.3712 25.0746 20.1915C24.8951 20.0118 24.8054 19.7891 24.8054 19.5235V12.5091L22.3535 13.836V19.2591C22.3535 19.6922 22.2489 20.0829 22.0398 20.4313C21.8307 20.7796 21.5418 21.0564 21.1732 21.2615L15.3078 24.4321C15.1374 24.5283 14.9623 24.6004 14.7824 24.6485C14.6025 24.6966 14.4179 24.7206 14.2285 24.7206ZM14.0843 16.0236C14.1404 16.0556 14.1905 16.0717 14.2345 16.0717C14.2786 16.0717 14.3287 16.0556 14.3848 16.0236L22.779 11.4707L14.3848 6.92985C14.3287 6.89779 14.2786 6.88176 14.2345 6.88176C14.1905 6.88176 14.1404 6.89779 14.0843 6.92985L5.67806 11.4707L14.0843 16.0236ZM14.0723 22.8096C14.1284 22.8416 14.1804 22.8577 14.2285 22.8577C14.2766 22.8577 14.3287 22.8416 14.3848 22.8096L20.2982 19.6149C20.3623 19.5748 20.4084 19.5287 20.4365 19.4766C20.4645 19.4246 20.4785 19.3584 20.4785 19.2783V14.836L15.3271 17.6654C15.1556 17.7615 14.9777 17.8316 14.7934 17.8757C14.6091 17.9198 14.4208 17.9418 14.2285 17.9418C14.0362 17.9418 13.8479 17.9198 13.6636 17.8757C13.4793 17.8316 13.3014 17.7615 13.13 17.6654L7.97853 14.836V19.2783C7.97853 19.3424 7.99255 19.4045 8.02059 19.4646C8.04865 19.5247 8.09473 19.5748 8.15884 19.6149L14.0723 22.8096Z" fill="#00898A"/>
</svg>
